<svg id="_x31__x2C_5_px" height="512" viewBox="0 0 24 24" width="512" xmlns="http://www.w3.org/2000/svg"><path d="m15.138.724h-6.276c-1.853 0-3.362 1.508-3.362 3.362v8.517c0 .371.301.672.672.672h11.655c.371 0 .672-.301.672-.672v-8.517c.001-1.854-1.508-3.362-3.361-3.362z" fill="#cfd8dc"/><circle cx="12" cy="7" fill="#607d8b" r="3.237"/><path d="m18.5 14c-.414 0-.75-.336-.75-.75v-9.5c0-1.241-1.01-2.25-2.25-2.25h-7c-1.24 0-2.25 1.009-2.25 2.25v9.5c0 .414-.336.75-.75.75s-.75-.336-.75-.75v-9.5c0-2.068 1.683-3.75 3.75-3.75h7c2.067 0 3.75 1.682 3.75 3.75v9.5c0 .414-.336.75-.75.75z"/><path d="m20.25 14h-16.5c-.414 0-.75-.336-.75-.75s.336-.75.75-.75h16.5c.414 0 .75.336.75.75s-.336.75-.75.75z"/><path d="m12 24c-.414 0-.75-.336-.75-.75v-10c0-.414.336-.75.75-.75s.75.336.75.75v10c0 .414-.336.75-.75.75z"/><path d="m6.75 24c-.077 0-.154-.012-.231-.037-.395-.128-.609-.551-.481-.945l3.25-10c.128-.394.553-.608.944-.481.395.128.609.551.481.945l-3.25 10c-.103.317-.397.518-.713.518z"/><path d="m17.25 24c-.323 0-.621-.209-.719-.535l-3-10c-.118-.396.106-.814.503-.934.401-.117.815.106.935.503l3 10c.118.396-.106.814-.503.934-.072.022-.145.032-.216.032z"/><path d="m12 11c-2.206 0-4-1.794-4-4s1.794-4 4-4 4 1.794 4 4-1.794 4-4 4zm0-6.5c-1.379 0-2.5 1.122-2.5 2.5s1.121 2.5 2.5 2.5 2.5-1.122 2.5-2.5-1.121-2.5-2.5-2.5z"/><path d="m12 8c-.552 0-1-.449-1-1s.448-1 1-1 1 .449 1 1-.448 1-1 1z"/></svg>