<svg id="Layer_1" enable-background="new 0 0 512 512" height="512" viewBox="0 0 512 512" width="512" xmlns="http://www.w3.org/2000/svg"><g><ellipse cx="250.079" cy="267" fill="#00adf4" rx="245" ry="245" transform="matrix(.707 -.707 .707 .707 -115.551 255.035)"/><g fill="#e6f8fc"><path d="m364.577 370.211h-49.839c-2.398 0-3.743-2.763-2.264-4.651l22.133-28.246c2.588-3.303 2.52-8.105-.433-11.085-3.57-3.605-9.355-3.173-12.382.691l-33.058 42.189c-.545.696-1.38 1.102-2.264 1.102h-50.394c-2.007 0-3.862-1.071-4.866-2.809l-16.485-28.554c-1.271-2.202-.905-4.984.893-6.782l38.928-38.928c.625-.625 1.503-.928 2.38-.822l53.207 6.457c4.903.593 9.289-3.229 9.244-8.302-.037-4.182-3.381-7.605-7.533-8.109l-35.622-4.323c-2.381-.289-3.383-3.194-1.688-4.889l35.485-35.485c3.222-3.222 3.222-8.444 0-11.667-3.221-3.22-8.444-3.22-11.665 0l-35.486 35.486c-1.696 1.696-4.6.694-4.889-1.687l-4.357-35.9c-.549-4.523-4.654-7.748-9.183-7.195-4.523.549-7.744 4.66-7.195 9.182l6.457 53.207c.106.878-.197 1.755-.822 2.38l-33.673 33.673c-2.612 2.612-6.991 2.036-8.839-1.164l-.411-.712c-1.473-2.552-4.197-4.124-7.144-4.124h-21.389c-3.103 0-5.618-2.516-5.618-5.618v-53.979c0-.884.406-1.719 1.102-2.264l41.972-32.888c3.302-2.587 4.384-7.266 2.23-10.865-2.605-4.353-8.325-5.317-12.189-2.29l-28.466 22.304c-1.888 1.479-4.651.134-4.651-2.264v-49.839c0-4.517-3.48-8.455-7.995-8.591-4.672-.14-8.503 3.604-8.503 8.245v50.184c0 2.398-2.763 3.743-4.65 2.264l-28.465-22.304c-3.651-2.863-8.962-2.157-11.734 1.606-2.679 3.637-1.726 8.806 1.829 11.591l41.919 32.845c.696.545 1.102 1.38 1.102 2.264v53.979c0 3.103-2.516 5.618-5.618 5.618h-21.389c-2.947 0-5.67 1.572-7.144 4.124l-.411.711c-1.847 3.199-6.226 3.776-8.838 1.164l-33.673-33.673c-.625-.625-.928-1.503-.821-2.38l6.416-52.866c.545-4.491-2.448-8.823-6.922-9.493-4.621-.692-8.856 2.564-9.414 7.164l-4.357 35.9c-.289 2.381-3.194 3.383-4.89 1.687l-35.486-35.486c-2.139-2.139-5.16-2.848-7.892-2.146-.901 5.07-1.63 10.199-2.214 15.372l33.926 33.926c1.696 1.696.694 4.6-1.688 4.889l-33.339 4.046c.336 5.528.84 11.01 1.536 16.432l51.098-6.201c.878-.106 1.755.197 2.381.822l38.928 38.928c1.798 1.798 2.164 4.58.893 6.782l-16.486 28.554c-1.004 1.738-2.858 2.809-4.866 2.809h-50.39c-.306 0-.6-.065-.884-.157 2.634 5.673 5.479 11.228 8.524 16.655h42.753c2.007 0 3.862 1.071 4.866 2.809l16.486 28.554c1.271 2.202.905 4.984-.893 6.782l-18.98 18.98c3.975 3.812 8.082 7.486 12.306 11.026l13.084-13.084c2.612-2.612 6.991-2.036 8.838 1.164l.411.711c1.473 2.552 4.197 4.125 7.144 4.125h21.389c3.103 0 5.618 2.515 5.618 5.618v36.989c5.398 2.439 10.9 4.688 16.498 6.739v-43.728c0-3.103 2.516-5.618 5.618-5.618h21.389c2.947 0 5.67-1.572 7.144-4.125l.411-.711c1.847-3.199 6.226-3.776 8.839-1.164l33.673 33.673c.625.625.928 1.503.822 2.381l-4.118 33.932c3.482.147 6.978.238 10.496.238 2.04 0 4.074-.028 6.103-.077l1.796-14.799c.289-2.381 3.194-3.383 4.889-1.687l14.987 14.987c6.822-.77 13.56-1.814 20.2-3.133l-23.521-23.52c-1.696-1.696-.694-4.6 1.688-4.889l35.556-4.315c4.486-.544 7.977-4.478 7.564-8.979-.427-4.651-4.601-7.993-9.208-7.44l-53.207 6.457c-.878.107-1.755-.196-2.381-.822l-38.928-38.928c-1.798-1.798-2.164-4.58-.893-6.782l16.486-28.554c1.004-1.738 2.858-2.809 4.866-2.809h50.394c.884 0 1.719.407 2.264 1.102l33.058 42.189c2.845 3.63 8.149 4.243 11.751 1.268 3.493-2.884 3.818-8.148 1.024-11.714l-22.093-28.196c-1.479-1.888-.134-4.651 2.264-4.651h50.184c4.64 0 8.385-3.83 8.245-8.501-.135-4.51-4.074-7.992-8.591-7.992zm-149.088 13.542-24.382 42.231c-1.891 3.275-5.386 5.293-9.168 5.293h-48.764c-3.782 0-7.277-2.018-9.167-5.293l-24.382-42.231c-1.891-3.275-1.891-7.31 0-10.586l24.382-42.231c1.891-3.275 5.385-5.293 9.167-5.293h48.764c3.782 0 7.276 2.018 9.168 5.293l24.382 42.231c1.891 3.276 1.891 7.311 0 10.586z"/><path d="m502.542 259.441-13.282-7.668c-1.239-.715-1.095-2.548.241-3.061l7.49-2.877c4.217-1.62 6.646-6.283 5.152-10.546-1.545-4.41-6.415-6.642-10.745-4.978l-22.849 8.777c-.479.184-1.016.142-1.461-.115l-10.08-5.82c-1.383-.799-1.857-2.567-1.058-3.95l3.041-5.267c1.473-2.552 1.473-5.697 0-8.249l-3.146-5.449c-.799-1.383-.325-3.152 1.059-3.95l10.185-5.88c.445-.257.981-.299 1.461-.115l22.849 8.777c4.616 1.773 9.806-.879 10.991-5.812.975-4.063-1.436-8.19-5.336-9.689l-7.552-2.9c-1.336-.513-1.48-2.346-.241-3.061l13.278-7.666c3.913-2.259 5.583-7.245 3.441-11.223-2.215-4.114-7.372-5.555-11.39-3.237l-13.579 7.839c-1.239.715-2.754-.326-2.531-1.739l1.254-7.928c.706-4.461-2.117-8.894-6.555-9.733-4.593-.868-8.962 2.232-9.686 6.816l-3.823 24.176c-.08.507-.385.951-.83 1.208l-10.186 5.88c-1.383.798-3.151.325-3.95-1.058l-3.04-5.266c-1.473-2.552-4.197-4.124-7.144-4.124h-6.187c-1.597 0-2.891-1.295-2.891-2.891v-11.822c0-.513.232-.999.631-1.322l18.81-15.225c3.262-2.64 4.27-7.336 2.059-10.902-2.673-4.311-8.408-5.183-12.222-2.097l-6.506 5.266c-1.112.9-2.772.109-2.772-1.322v-15.334c0-4.517-3.48-8.455-7.995-8.591-4.672-.14-8.503 3.604-8.503 8.245v15.679c0 1.431-1.659 2.223-2.772 1.322l-6.237-5.048c-3.511-2.842-8.762-2.614-11.708.81-3.048 3.543-2.547 8.877 1.06 11.797l19.026 15.399c.399.323.631.809.631 1.322v11.822c0 1.597-1.294 2.891-2.891 2.891h-6.187c-2.947 0-5.67 1.572-7.144 4.124l-3.04 5.266c-.799 1.383-2.567 1.857-3.95 1.058l-10.185-5.88c-.445-.257-.749-.701-.83-1.208l-3.823-24.177c-.767-4.854-5.628-8.042-10.498-6.621-4.022 1.174-6.408 5.334-5.754 9.473l1.264 7.993c.223 1.413-1.292 2.455-2.531 1.739l-13.279-7.666c-3.912-2.258-9.063-1.214-11.438 2.628-2.457 3.975-1.13 9.166 2.889 11.486l13.579 7.839c1.239.715 1.095 2.548-.241 3.061l-7.49 2.877c-4.217 1.62-6.646 6.281-5.153 10.544 1.544 4.411 6.415 6.644 10.745 4.98l22.85-8.777c.479-.184 1.016-.142 1.461.115l10.185 5.88c1.383.798 1.857 2.567 1.058 3.95l-3.146 5.449c-1.474 2.552-1.474 5.697 0 8.249l3.041 5.267c.798 1.383.324 3.151-1.058 3.95l-10.08 5.819c-.445.257-.982.299-1.461.115l-22.849-8.777c-4.334-1.664-9.2.568-10.745 4.979-1.493 4.264.936 8.926 5.152 10.546l7.49 2.877c1.336.513 1.48 2.346.241 3.061l-13.282 7.668c-3.923 2.265-5.586 7.27-3.423 11.25 2.231 4.104 7.377 5.516 11.375 3.209l13.579-7.84c1.239-.716 2.755.326 2.531 1.739l-1.307 8.267c-.79 4.992 3.063 9.539 8.158 9.539 3.987 0 7.495-2.898 8.137-6.961l3.823-24.177c.08-.507.385-.951.83-1.208l10.079-5.819c1.383-.798 3.151-.325 3.95 1.058l3.146 5.449c1.474 2.552 4.197 4.124 7.144 4.124h6.187c1.597 0 2.891 1.294 2.891 2.891v11.577c0 .513-.232.999-.631 1.322l-18.81 15.225c-3.262 2.64-4.27 7.336-2.058 10.902 2.674 4.311 8.408 5.181 12.221 2.096l6.506-5.266c1.113-.9 2.772-.109 2.772 1.322v15.334c0 4.517 3.481 8.455 7.995 8.591 4.671.14 8.502-3.605 8.502-8.245v-15.679c0-1.431 1.659-2.223 2.772-1.322l6.506 5.266c3.576 2.895 8.879 2.317 11.728-1.384 2.767-3.593 1.907-8.805-1.618-11.658l-18.758-15.182c-.399-.323-.631-.809-.631-1.322v-11.577c0-1.597 1.295-2.892 2.891-2.892h6.187c2.947 0 5.67-1.572 7.144-4.124l3.146-5.45c.798-1.383 2.567-1.857 3.95-1.058l10.08 5.82c.445.257.75.701.83 1.208l3.823 24.177c.709 4.486 4.921 7.571 9.436 6.859 4.5-.712 7.571-4.936 6.859-9.437l-1.307-8.267c-.223-1.413 1.292-2.455 2.531-1.739l13.579 7.84c3.985 2.3 9.127.905 11.366-3.194 2.176-3.978.515-8.994-3.413-11.262zm-61.171-37.982-10.662 18.467c-.589 1.02-1.677 1.648-2.854 1.648h-21.324c-1.178 0-2.265-.628-2.854-1.648l-10.662-18.467c-.589-1.02-.589-2.276 0-3.296l10.662-18.466c.589-1.02 1.677-1.648 2.854-1.648h21.324c1.178 0 2.266.628 2.854 1.648l10.662 18.466c.589 1.02.589 2.277 0 3.296z"/><path d="m332.112 127.045-9.092-5.249c-1.465-.846-1.295-3.012.284-3.619l1.887-.725c4.216-1.62 6.645-6.282 5.153-10.545-1.544-4.411-6.416-6.645-10.745-4.98l-16.071 6.174c-1.605.617-3.403.475-4.892-.384l-15.224-8.789c-2.18-1.258-2.18-4.405 0-5.663l15.225-8.79c1.489-.86 3.287-1.001 4.892-.384l16.07 6.174c4.598 1.766 9.784-.858 10.984-5.787.99-4.068-1.418-8.211-5.327-9.713l-1.95-.749c-1.579-.607-1.749-2.773-.284-3.619l9.149-5.282c3.634-2.098 5.363-6.579 3.735-10.447-1.968-4.676-7.495-6.432-11.744-3.979l-9.389 5.421c-1.465.846-3.256-.385-2.992-2.056l.37-2.338c.712-4.5-2.359-8.725-6.859-9.437-4.5-.709-8.724 2.359-9.436 6.859l-2.69 17.006c-.268 1.698-1.29 3.184-2.779 4.044l-15.224 8.79c-2.18 1.258-4.904-.315-4.904-2.831v-17.58c0-1.719.777-3.347 2.113-4.429l13.383-10.832c3.541-2.867 4.088-8.061 1.222-11.602s-8.06-4.086-11.602-1.222l-1.84 1.489c-1.315 1.064-3.276.129-3.276-1.563v-10.494c0-4.517-3.48-8.455-7.995-8.591-4.672-.14-8.503 3.604-8.503 8.245v10.839c0 1.692-1.961 2.627-3.276 1.563l-1.569-1.27c-3.511-2.842-8.763-2.615-11.708.81-3.048 3.543-2.547 8.877 1.059 11.797l13.382 10.831c1.337 1.082 2.113 2.709 2.113 4.429v17.579c0 2.517-2.725 4.09-4.904 2.832l-15.223-8.789c-1.489-.86-2.51-2.346-2.779-4.044l-2.689-17.006c-.711-4.5-4.943-7.567-9.436-6.859-4.5.712-7.571 4.937-6.859 9.437l.37 2.338c.264 1.671-1.527 2.902-2.992 2.056l-9.389-5.421c-4.019-2.32-9.176-.876-11.391 3.239-2.141 3.978-.47 8.963 3.442 11.222l9.088 5.247c1.465.846 1.295 3.012-.284 3.619l-1.886.725c-4.216 1.62-6.645 6.281-5.153 10.544 1.544 4.411 6.415 6.645 10.745 4.98l16.07-6.174c1.605-.617 3.403-.475 4.892.384l15.225 8.79c2.18 1.258 2.18 4.404 0 5.663l-15.223 8.789c-1.489.86-3.287 1.001-4.892.384l-16.071-6.174c-4.329-1.662-9.199.568-10.745 4.977-1.495 4.263.934 8.926 5.15 10.546l1.889.726c1.579.607 1.749 2.773.284 3.619l-9.092 5.249c-3.923 2.265-5.587 7.27-3.423 11.25 2.231 4.104 7.377 5.516 11.375 3.21l9.388-5.42c1.465-.846 3.256.385 2.992 2.056l-.369 2.337c-.79 4.992 3.063 9.539 8.158 9.539 3.988 0 7.495-2.898 8.137-6.961l2.689-17.005c.269-1.698 1.29-3.184 2.779-4.044l15.224-8.789c2.179-1.258 4.904.315 4.904 2.831v17.578c0 1.719-.776 3.347-2.113 4.428l-13.382 10.831c-3.541 2.867-4.088 8.061-1.222 11.602 2.866 3.542 8.06 4.086 11.602 1.222l1.839-1.488c1.315-1.064 3.276-.128 3.276 1.563v10.494c0 4.517 3.48 8.455 7.995 8.591 4.672.14 8.503-3.604 8.503-8.245v-10.841c0-1.692 1.962-2.627 3.276-1.563l1.84 1.489c3.533 2.859 8.73 2.326 11.602-1.222 2.866-3.541 2.319-8.736-1.222-11.602l-13.383-10.832c-1.336-1.082-2.113-2.709-2.113-4.428v-17.578c0-2.517 2.725-4.09 4.904-2.832l15.224 8.79c1.489.86 2.51 2.346 2.779 4.044l2.689 17.005c.709 4.486 4.921 7.571 9.436 6.859 4.5-.712 7.571-4.936 6.859-9.437l-.37-2.337c-.264-1.671 1.527-2.902 2.992-2.056l9.388 5.42c3.985 2.3 9.127.905 11.366-3.194 2.173-3.981.512-8.997-3.416-11.265z"/><ellipse cx="111.558" cy="115.228" rx="19.247" ry="19.247" transform="matrix(.707 -.707 .707 .707 -48.804 112.633)"/><ellipse cx="391.097" cy="443.679" rx="19.247" ry="19.247" transform="matrix(.707 -.707 .707 .707 -199.179 406.498)"/></g><ellipse cx="394.477" cy="66.495" fill="#b8e9fa" rx="19.247" ry="19.247" transform="matrix(.973 -.23 .23 .973 -4.725 92.411)"/><ellipse cx="52.879" cy="157.219" fill="#b8e9fa" rx="11.319" ry="11.319" transform="matrix(.707 -.707 .707 .707 -95.683 83.44)"/><ellipse cx="347.855" cy="11.319" fill="#e6f8fc" rx="11.319" ry="11.319" transform="matrix(.973 -.23 .23 .973 6.705 80.223)"/><path d="m276.222 478.881 35.556-4.315c4.486-.544 7.977-4.478 7.564-8.979-.427-4.651-4.601-7.993-9.208-7.441l-53.207 6.457c-.878.107-1.755-.196-2.381-.822l-38.928-38.928c-1.798-1.798-2.164-4.58-.893-6.782l4.215-7.3c-11.614 3.504-13.848-6.766-14.139-8.506l-13.693 23.718c-1.891 3.275-5.386 5.293-9.168 5.293h-48.764c-3.782 0-7.277-2.018-9.167-5.293l-24.382-42.231c-1.891-3.275-1.891-7.31 0-10.586l14.048-24.332c-13.559 3.144-13.284-9.988-13.284-9.988l-16.486 28.554c-1.003 1.738-2.858 2.809-4.866 2.809h-50.393c-.306 0-.6-.065-.884-.157 2.634 5.673 5.479 11.228 8.524 16.655h42.753c2.007 0 3.862 1.071 4.866 2.809l16.486 28.554c1.271 2.202.905 4.984-.893 6.782l-18.98 18.98c3.975 3.812 8.082 7.486 12.306 11.026l13.084-13.084c2.612-2.612 6.992-2.036 8.839 1.164l.411.711c1.473 2.552 4.196 4.125 7.144 4.125h21.388c3.103 0 5.618 2.515 5.618 5.618v36.989c5.398 2.439 10.9 4.688 16.498 6.739v-43.728c0-3.103 2.516-5.618 5.618-5.618h21.389c2.947 0 5.67-1.572 7.144-4.125l.411-.711c1.847-3.199 6.226-3.776 8.839-1.164l33.673 33.673c.625.625.928 1.503.822 2.381l-4.118 33.932c3.482.147 6.978.238 10.496.238 2.04 0 4.074-.027 6.103-.077l1.796-14.799c.289-2.381 3.194-3.383 4.889-1.687l14.987 14.987c6.822-.77 13.56-1.814 20.2-3.133l-23.52-23.52c-1.697-1.695-.695-4.599 1.687-4.888z" fill="#8adaf9"/><g fill="#b8e9fa"><path d="m191.91 65.149 9.088 5.247c1.465.846 1.295 3.012-.284 3.619l-1.886.725c-4.216 1.62-6.645 6.281-5.153 10.544 1.544 4.411 6.415 6.645 10.746 4.98l16.07-6.174c-5.104-15.922 10.363-17.947 10.363-17.947l-2.689-17.006c-.711-4.5-4.943-7.567-9.436-6.859-4.5.712-7.571 4.937-6.859 9.437l.37 2.338c.264 1.671-1.527 2.902-2.992 2.056l-9.389-5.421c-4.019-2.32-9.176-.876-11.391 3.239-2.141 3.979-.47 8.964 3.442 11.222z"/><path d="m285.754 148.885-13.383-10.832c-10.632 10.632-20.724.001-20.724.001l-13.382 10.831c-3.541 2.867-4.088 8.061-1.222 11.602 2.866 3.542 8.06 4.086 11.602 1.222l1.838-1.488c1.315-1.064 3.276-.128 3.276 1.563v10.494c0 4.517 3.48 8.455 7.995 8.591 4.672.14 8.503-3.604 8.503-8.245v-10.841c0-1.692 1.962-2.627 3.276-1.563l1.84 1.489c3.533 2.859 8.73 2.326 11.602-1.222 2.867-3.541 2.319-8.735-1.221-11.602z"/><path d="m228.164 143.054 2.689-17.005c.269-1.698 1.29-3.184 2.779-4.044l5.643-3.258c-12.152-2.932-8.422-14.186-8.422-14.188l-5.47 3.158c-1.489.86-3.287 1.001-4.892.384l-16.071-6.174c-4.33-1.662-9.198.568-10.745 4.977-1.495 4.263.934 8.926 5.15 10.546l1.889.726c1.579.607 1.749 2.773.284 3.619l-9.092 5.249c-3.923 2.265-5.587 7.27-3.423 11.25 2.231 4.104 7.377 5.516 11.375 3.21l9.388-5.42c1.465-.846 3.256.385 2.992 2.056l-.369 2.337c-.79 4.992 3.063 9.539 8.158 9.539 3.988-.001 7.495-2.899 8.137-6.962z"/></g><path d="m479.788 276.066-1.307-8.267c-.223-1.413 1.292-2.455 2.531-1.739l13.579 7.84c3.985 2.3 9.127.905 11.366-3.194 2.175-3.981.514-8.997-3.414-11.265l-13.282-7.668c-1.239-.715-1.095-2.548.241-3.061l7.49-2.877c4.217-1.62 6.646-6.283 5.152-10.546-1.545-4.41-6.415-6.642-10.745-4.978l-22.849 8.777c-.479.184-1.016.142-1.461-.115l-10.08-5.82c-13.811 10.933-20.187-2.069-20.635-3.037l-5.664 9.811c-.589 1.02-1.677 1.648-2.854 1.648h-21.323c-1.177 0-2.265-.628-2.854-1.648l-10.662-18.467c-.589-1.02-.589-2.276 0-3.296l7.807-13.522c-16.851 5.207-15.09-12.641-15.09-12.641l-10.185-5.88c-.445-.257-.749-.701-.83-1.208l-3.824-24.177c-.767-4.854-5.628-8.042-10.497-6.621-4.022 1.174-6.408 5.334-5.754 9.473l1.264 7.993c.223 1.413-1.292 2.455-2.531 1.739l-13.279-7.666c-3.912-2.258-9.063-1.214-11.438 2.628-2.457 3.975-1.13 9.166 2.889 11.486l13.579 7.839c1.239.715 1.095 2.548-.241 3.061l-7.49 2.877c-4.217 1.62-6.646 6.281-5.153 10.544 1.544 4.411 6.415 6.644 10.745 4.98l22.85-8.777c.479-.184 1.016-.142 1.461.115l10.185 5.88c1.383.798 1.857 2.567 1.058 3.95l-3.146 5.449c-1.474 2.552-1.474 5.697 0 8.249l3.041 5.267c.798 1.383.324 3.151-1.058 3.95l-10.08 5.819c-.445.257-.982.299-1.461.115l-22.849-8.777c-4.334-1.664-9.2.568-10.745 4.979-1.493 4.264.936 8.926 5.152 10.546l7.49 2.877c1.336.513 1.48 2.346.241 3.061l-13.281 7.668c-3.923 2.265-5.587 7.27-3.423 11.25 2.231 4.104 7.377 5.516 11.375 3.209l13.579-7.84c1.239-.716 2.755.326 2.531 1.739l-1.307 8.267c-.79 4.992 3.063 9.539 8.158 9.539 3.987 0 7.495-2.898 8.137-6.961l3.824-24.177c.08-.507.385-.951.83-1.208l10.079-5.819c1.383-.798 3.151-.325 3.95 1.058l3.146 5.449c1.474 2.552 4.197 4.124 7.144 4.124h6.187c1.597 0 2.891 1.294 2.891 2.891v11.577c0 .513-.232.999-.631 1.322l-18.81 15.225c-3.262 2.64-4.27 7.336-2.058 10.902 2.674 4.311 8.408 5.181 12.222 2.096l6.506-5.266c1.113-.9 2.772-.109 2.772 1.322v15.334c0 4.517 3.481 8.455 7.995 8.591 4.671.14 8.502-3.605 8.502-8.245v-15.679c0-1.431 1.659-2.223 2.772-1.322l6.506 5.266c3.576 2.895 8.879 2.317 11.728-1.384 2.767-3.593 1.907-8.805-1.618-11.658l-18.758-15.182c-.399-.323-.631-.809-.631-1.322v-11.577c0-1.597 1.295-2.892 2.891-2.892h6.187c2.947 0 5.67-1.572 7.144-4.124l3.146-5.45c.798-1.383 2.567-1.857 3.95-1.058l10.08 5.82c.445.257.75.701.83 1.208l3.823 24.177c.709 4.486 4.921 7.571 9.436 6.859 4.497-.71 7.567-4.934 6.856-9.435z" fill="#b8e9fa"/></g></svg>